<svg width="19" height="4" viewBox="0 0 19 4" fill="none" xmlns="http://www.w3.org/2000/svg">
<path fill-rule="evenodd" clip-rule="evenodd" d="M2 4C3.10457 4 4 3.10457 4 2C4 0.895431 3.10457 0 2 0C0.895431 0 0 0.895431 0 2C0 3.10457 0.895431 4 2 4Z" fill="#C2C2CF"/>
<path fill-rule="evenodd" clip-rule="evenodd" d="M9.10083 4C10.2054 4 11.1008 3.10457 11.1008 2C11.1008 0.895431 10.2054 0 9.10083 0C7.99626 0 7.10083 0.895431 7.10083 2C7.10083 3.10457 7.99626 4 9.10083 4Z" fill="#C2C2CF"/>
<path fill-rule="evenodd" clip-rule="evenodd" d="M16.2015 4C17.3061 4 18.2015 3.10457 18.2015 2C18.2015 0.895431 17.3061 0 16.2015 0C15.097 0 14.2015 0.895431 14.2015 2C14.2015 3.10457 15.097 4 16.2015 4Z" fill="#C2C2CF"/>
</svg>
